<svg
      xmlns="http://www.w3.org/2000/svg"
      xmlns:xlink="http://www.w3.org/1999/xlink"
      style="background: transparent; background-color: transparent"
      version="1.1"
      width="275px"
      height="275px"
      viewBox="-250 -250 500 500"
    >
      <defs />
      <path
        d="M 170 0 L 169 -6 L 168 -11 L 166 -17 L 164 -22 L 161 -26 L 157 -31 L 152 -35 L 147 -38 L 142 -41 L 136 -43 L 130 -45 L 124 -45 L 117 -46 L 110 -45 L 104 -44 L 97 -42 L 90 -39 L 84 -36 L 78 -32 L 72 -27 L 67 -22 L 62 -16 L 57 -10 L 54 -3 L 51 4 L 48 11 L 46 19 L 45 26 L 45 34 L 45 41 L 46 49 L 48 56 L 51 63 L 54 70 L 57 76 L 61 82 L 66 87 L 71 92 L 77 96 L 82 99 L 88 102 L 94 104 L 101 105 L 107 106 L 113 106 L 119 105 L 124 103 L 129 101 L 134 98 L 139 95 L 142 91 L 146 86 L 148 81 L 150 76 L 152 71 L 152 65 L 152 60 L 151 54 L 150 48 L 147 43 L 144 38 L 141 33 L 136 28 L 131 24 L 126 20 L 120 17 L 114 15 L 107 13 L 100 12 L 93 11 L 86 11 L 78 12 L 71 14 L 64 16 L 57 19 L 50 23 L 44 27 L 38 32 L 32 37 L 27 43 L 23 50 L 19 56 L 16 63 L 14 70 L 12 78 L 11 85 L 11 92 L 12 99 L 13 106 L 15 113 L 17 119 L 20 125 L 24 131 L 28 136 L 32 140 L 37 144 L 42 147 L 48 149 L 54 151 L 59 152 L 65 152 L 70 152 L 76 150 L 81 149 L 86 146 L 90 143 L 94 139 L 98 135 L 101 130 L 103 125 L 105 119 L 106 113 L 106 107 L 105 101 L 104 95 L 102 89 L 100 83 L 96 77 L 92 72 L 88 66 L 82 62 L 77 58 L 70 54 L 64 51 L 57 48 L 50 47 L 42 45 L 34 45 L 27 45 L 19 46 L 12 48 L 4 50 L -3 53 L -9 57 L -16 61 L -21 66 L -27 72 L -31 77 L -36 83 L -39 90 L -42 96 L -44 103 L -45 110 L -46 116 L -45 123 L -45 130 L -43 136 L -41 142 L -38 147 L -35 152 L -31 156 L -27 160 L -22 163 L -17 166 L -12 168 L -6 169 L -1 169 L 5 169 L 10 168 L 15 166 L 20 164 L 25 161 L 29 157 L 33 153 L 37 148 L 40 142 L 42 137 L 43 131 L 44 124 L 45 118 L 44 111 L 43 104 L 41 97 L 38 91 L 35 84 L 31 78 L 27 72 L 21 67 L 16 62 L 9 58 L 3 54 L -4 51 L -12 48 L -19 47 L -27 45 L -34 45 L -42 45 L -49 46 L -57 48 L -64 50 L -70 53 L -77 57 L -83 61 L -88 66 L -93 71 L -97 76 L -100 82 L -103 88 L -105 94 L -106 100 L -107 106 L -107 112 L -106 118 L -104 124 L -102 129 L -99 134 L -96 138 L -92 142 L -88 145 L -83 148 L -78 150 L -72 152 L -67 152 L -61 152 L -55 151 L -50 150 L -44 148 L -39 145 L -34 141 L -29 137 L -25 132 L -22 126 L -18 120 L -16 114 L -14 107 L -13 101 L -12 93 L -12 86 L -13 79 L -15 72 L -17 64 L -20 57 L -23 51 L -28 44 L -33 38 L -38 33 L -44 28 L -50 23 L -57 20 L -64 17 L -71 14 L -78 12 L -85 11 L -93 11 L -100 11 L -107 13 L -114 14 L -120 17 L -126 20 L -132 23 L -137 27 L -141 32 L -145 37 L -148 42 L -150 47 L -152 53 L -153 59 L -153 64 L -153 70 L -152 75 L -150 81 L -147 85 L -144 90 L -140 94 L -136 98 L -131 100 L -126 103 L -120 105 L -115 106 L -109 106 L -103 105 L -96 104 L -90 102 L -84 100 L -79 97 L -73 93 L -68 88 L -63 83 L -59 77 L -55 71 L -52 64 L -50 57 L -48 50 L -46 43 L -46 35 L -46 27 L -47 20 L -49 12 L -51 5 L -54 -2 L -58 -9 L -62 -15 L -67 -21 L -72 -26 L -78 -31 L -84 -35 L -90 -39 L -97 -42 L -103 -44 L -110 -45 L -117 -46 L -124 -46 L -130 -45 L -136 -43 L -142 -41 L -148 -38 L -153 -35 L -157 -31 L -161 -27 L -164 -22 L -167 -17 L -169 -12 L -170 -7 L -170 -1 L -170 4 L -169 10 L -168 15 L -165 20 L -162 25 L -158 29 L -154 33 L -149 36 L -144 39 L -138 42 L -132 43 L -126 44 L -119 45 L -112 44 L -106 43 L -99 41 L -92 39 L -86 35 L -80 32 L -74 27 L -68 22 L -64 16 L -59 10 L -55 3 L -52 -4 L -50 -11 L -48 -18 L -46 -26 L -46 -34 L -46 -41 L -47 -49 L -49 -56 L -51 -63 L -54 -70 L -58 -76 L -62 -82 L -66 -88 L -71 -92 L -77 -96 L -82 -100 L -88 -103 L -94 -105 L -101 -106 L -107 -107 L -113 -107 L -119 -106 L -124 -104 L -130 -102 L -134 -100 L -139 -96 L -143 -92 L -146 -88 L -149 -83 L -151 -78 L -152 -73 L -153 -67 L -153 -62 L -152 -56 L -151 -50 L -149 -45 L -146 -39 L -142 -34 L -138 -30 L -133 -26 L -128 -22 L -122 -19 L -116 -16 L -109 -14 L -102 -13 L -95 -12 L -88 -12 L -80 -13 L -73 -14 L -66 -17 L -59 -20 L -52 -23 L -46 -27 L -40 -32 L -34 -38 L -29 -43 L -25 -50 L -21 -56 L -18 -63 L -15 -70 L -13 -77 L -12 -85 L -12 -92 L -12 -99 L -13 -106 L -15 -113 L -18 -119 L -21 -126 L -24 -131 L -28 -136 L -33 -141 L -37 -144 L -43 -148 L -48 -150 L -54 -152 L -59 -153 L -65 -153 L -71 -153 L -76 -152 L -81 -150 L -86 -147 L -91 -144 L -95 -141 L -98 -136 L -101 -132 L -104 -126 L -105 -121 L -107 -115 L -107 -109 L -107 -103 L -105 -97 L -104 -91 L -101 -85 L -98 -79 L -94 -73 L -89 -68 L -84 -64 L -79 -59 L -73 -55 L -66 -52 L -59 -50 L -52 -48 L -44 -47 L -37 -46 L -29 -46 L -21 -47 L -14 -49 L -7 -51 L 1 -54 L 7 -58 L 14 -62 L 20 -66 L 25 -72 L 30 -77 L 34 -83 L 37 -90 L 40 -96 L 42 -103 L 44 -110 L 45 -116 L 45 -123 L 44 -130 L 42 -136 L 40 -142 L 38 -147 L 34 -152 L 31 -157 L 26 -161 L 22 -164 L 17 -167 L 12 -169 L 6 -170 L 1 -170 L -5 -170 L -10 -169 L -15 -168 L -20 -165 L -25 -162 L -30 -159 L -34 -154 L -37 -150 L -40 -144 L -43 -139 L -44 -133 L -45 -126 L -46 -120 L -45 -113 L -44 -106 L -42 -99 L -40 -93 L -37 -86 L -33 -80 L -28 -74 L -23 -69 L -18 -64 L -11 -59 L -5 -56 L 2 -52 L 9 -50 L 17 -48 L 24 -47 L 32 -46 L 40 -46 L 47 -47 L 55 -49 L 62 -51 L 68 -54 L 75 -57 L 81 -61 L 86 -66 L 91 -71 L 95 -76 L 99 -82 L 102 -88 L 104 -94 L 105 -100 L 106 -106 L 106 -112 L 105 -118 L 104 -124 L 101 -129 L 99 -134 L 95 -139 L 92 -143 L 87 -146 L 83 -149 L 77 -151 L 72 -152 L 67 -153 L 61 -153 L 55 -153 L 50 -151 L 44 -149 L 39 -146 L 34 -143 L 29 -138 L 25 -134 L 21 -128 L 18 -122 L 15 -116 L 13 -110 L 12 -103 L 11 -96 L 11 -88 L 12 -81 L 13 -74 L 15 -66 L 18 -59 L 22 -53 L 26 -46 L 31 -40 L 36 -35 L 42 -30 L 48 -25 L 55 -21 L 62 -18 L 69 -15 L 76 -14 L 83 -12 L 91 -12 L 98 -12 L 105 -13 L 112 -15 L 118 -17 L 124 -20 L 130 -24 L 135 -28 L 139 -32 L 143 -37 L 146 -42 L 149 -48 L 151 -53 L 152 -59 L 152 -65 L 152 -70 L 151 -76 L 149 -81 L 147 -86 L 144 -90 L 140 -94 L 136 -98 L 131 -101 L 126 -103 L 120 -105 L 115 -106 L 109 -107 L 102 -107 L 96 -106 L 90 -104 L 84 -101 L 78 -98 L 73 -94 L 68 -90 L 63 -85 L 59 -79 L 55 -73 L 51 -66 L 49 -60 L 47 -52 L 46 -45 L 45 -37 L 45 -30 L 46 -22 L 48 -14 L 50 -7 L 53 0 L 56 7 L 60 13 L 65 19 L 70 25 L 76 29 L 82 34 L 88 37 L 95 40 L 101 42 L 108 44 L 115 45 L 122 45 L 128 44 L 134 43 L 140 41 L 146 38 L 151 35 L 155 31 L 159 27 L 163 22 L 165 17 L 168 12 L 169 7 L 169 1"
        fill="none"
        stroke="#000000"
        stroke-width="4"
        stroke-miterlimit="10"
        pointer-events="stroke"
        style="stroke: light-dark(rgb(0, 0, 0), rgb(255, 255, 255))"
      />
      <circle
        cx="170"
        cy="0"
        r="20"
        fill="white"
        stroke="#000000"
        stroke-width="4"
        stroke-miterlimit="10"
        pointer-events="stroke"
        style="stroke: light-dark(rgb(0, 0, 0), rgb(255, 255, 255))"
      />
      
    </svg>