<svg xmlns="http://www.w3.org/2000/svg" style="background: transparent; background-color: transparent;" xmlns:xlink="http://www.w3.org/1999/xlink" version="1.1" width="531px" height="62px" viewBox="-1 -1 531 61" ><defs/><g><path d="M0 30 L 30 0M 60 30 L 30 0M 40 20 L 20 20M10 30 L50 30M 50 30 L 30 50M 100 0 L 70 0M 100 0 L 100 50M 70 50 L 100 50M 110 0 L 120 20M 150 0 L 120 50M 190 50 L 190 0M 230 0 L 190 0M 230 0 L 230 50M 190 50 L 230 50M 240 20 L 280 20M 300 0 L 340 0M 290 20 L 350 20M 320 50 L 330 20M 380 50 L 400 10M 370 20 L 380 0M 400 10 L 380 0" fill="none" stroke="#000000" stroke-miterlimit="10" pointer-events="stroke" style="stroke: light-dark(rgb(0, 0, 0), rgb(255, 255, 255));"/></g></svg>