<svg
      xmlns="http://www.w3.org/2000/svg"
      style="background: transparent; background-color: transparent"
      xmlns:xlink="http://www.w3.org/1999/xlink"
      version="1.1"
      width="101px"
      height="182px"
      viewBox="0 0 111 202"
    >
      <defs />
      <g>
        <g transform="translate(10 20)">
          <path
            d="M29 -11 v1h-4v2h-3v3h-2v4h-1v1h62v-1h-1v-4h-2v-3h-3v-2h-4v-1h-2v11h-2v-11h-2v11h-2v-11h-2v11h-2v-11h-2v11h-2v-11h-2v11h-2v-11h-2v11h-2v-11h-2v11h-2v-11h-2v11h-2v-11h-2v11h-2v-11h-2v11h-2v-11h40z"
            stroke="red"
            fill="black"
          ></path>
          <rect
            x="20"
            y="0"
            width="60"
            height="40"
            fill="#f1c27d"
            stroke="#000000"
            pointer-events="all"
          />

          <rect
            x="30"
            y="10"
            width="10"
            height="20"
            fill="black"
            stroke="#000000"
            pointer-events="all"
          />
          <rect
            x="60"
            y="10"
            width="10"
            height="20"
            fill="black"
            stroke="#000000"
            pointer-events="all"
          />
          <rect
            x="0"
            y="40"
            width="100"
            height="80"
            fill="#3498db"
            stroke="#000000"
            pointer-events="all"
          />
          <rect
            x="20"
            y="120"
            width="60"
            height="60"
            fill="#2c3e50"
            stroke="#000000"
            pointer-events="all"
          />
          <path
            d="M 20 120 L 20 60"
            fill="none"
            stroke="#000000"
            stroke-miterlimit="10"
            pointer-events="stroke"
            style="stroke: light-dark(rgb(0, 0, 0), rgb(255, 255, 255))"
          />
          <path
            d="M 80 120 L 80 60"
            fill="none"
            stroke="#000000"
            stroke-miterlimit="10"
            pointer-events="stroke"
            style="stroke: light-dark(rgb(0, 0, 0), rgb(255, 255, 255))"
          />
          <path
            d="M 49.5 180 L 49.5 130"
            fill="none"
            stroke="#000000"
            stroke-miterlimit="10"
            pointer-events="stroke"
            style="stroke: light-dark(rgb(0, 0, 0), rgb(255, 255, 255))"
          />
        </g>
      </g>
    </svg>