<svg xmlns="http://www.w3.org/2000/svg" style="background: transparent; background-color: transparent;" xmlns:xlink="http://www.w3.org/1999/xlink" version="1.1" width="532px" height="72px" viewBox="-1 100 532 72" ><defs/><g><g><path d="M 0 130 L 0 110M 10 110 L 0 110M 10 130 L 30 110M 20 140 L 10 160M 20 170 L 20 120M 10 140 L 30 140M 20 140 L 30 150M 50 120 L 40 160M 40 160 L 60 160M 50 150 L 70 170M 80 120 L 110 120M 80 140 L 110 140M 90 160 L 90 120M 110 160 L 90 160M 120 130 L 160 130M 150 140 L 160 130M 140 160 L 130 120M 170 140 L 170 120M 190 150 L 190 120M 170 160 L 190 150M 210 120 L 200 140M 230 120 L 210 160M 210 120 L 230 120M 210 130 L 220 140M 230 150 L 260 120M 250 160 L 250 130M 260 160 L 270 160M 270 140 L 270 160M 290 160 L 290 120M 310 150 L 290 140M 350 120 L 340 110M 370 120 L 330 120M 360 130 L 340 130M 360 140 L 340 140M 360 150 L 340 150M 340 160 L 340 150M 360 160 L 360 150M 360 160 L 340 160M 380 140 L 380 120M 410 120 L 380 120M 410 150 L 410 120M 390 160 L 410 150M 420 130 L 460 130M 460 130 L 450 140M 430 120 L 430 160M 430 160 L 460 160M 480 120 L 470 140M 500 120 L 480 160M 480 120 L 500 120M 480 130 L 490 140M 500 150 L 530 120M 520 160 L 520 130" fill="none" stroke="#000000" stroke-miterlimit="10" pointer-events="stroke" style="stroke: light-dark(rgb(0, 0, 0), rgb(255, 255, 255));"/></g></g></svg>