<svg xmlns="http://www.w3.org/2000/svg" xmlns:xlink="http://www.w3.org/1999/xlink" style="background: transparent; background-color: transparent" version="1.1" width="270px" height="270px" viewBox="-175 -175 350 350">
      <defs/>
      <path  fill="none" stroke="#000000" stroke-width="4" stroke-miterlimit="10" pointer-events="stroke" style="stroke: light-dark(rgb(0, 0, 0), rgb(255, 255, 255))" d="M 15 0 L 15 -1 L 15 -2 L 15 -3 L 15 -4 L 15 -5 L 16 -6 L 16 -7 L 16 -8 L 17 -8 L 17 -9 L 18 -9 L 18 -10 L 19 -10 L 19 -11 L 20 -11 L 20 -12 L 21 -12 L 21 -13 L 22 -13 L 23 -14 L 24 -14 L 25 -14 L 25 -15 L 26 -15 L 27 -15 L 27 -16 L 28 -16 L 29 -16 L 30 -16 L 31 -16 L 32 -16 L 33 -16 L 34 -16 L 35 -16 L 36 -16 L 37 -16 L 38 -16 L 39 -16 L 40 -16 L 41 -15 L 42 -15 L 43 -15 L 44 -15 L 44 -14 L 45 -14 L 46 -14 L 47 -13 L 48 -13 L 49 -12 L 50 -12 L 50 -11 L 51 -11 L 52 -11 L 52 -10 L 53 -10 L 53 -9 L 54 -9 L 55 -8 L 56 -8 L 56 -7 L 57 -7 L 57 -6 L 58 -6 L 58 -5 L 59 -5 L 59 -4 L 60 -4 L 60 -3 L 61 -2 L 62 -1 L 62 0 L 63 0 L 63 1 L 64 1 L 64 2 L 64 3 L 65 3 L 65 4 L 65 5 L 66 5 L 66 6 L 67 7 L 67 8 L 68 9 L 68 10 L 68 11 L 69 11 L 69 12 L 69 13 L 70 13 L 70 14 L 70 15 L 70 16 L 71 17 L 71 18 L 71 19 L 71 20 L 72 21 L 72 22 L 72 23 L 72 24 L 72 25 L 72 26 L 72 27 L 73 27 L 73 28 L 73 29 L 73 30 L 73 31 L 73 32 L 73 33 L 73 34 L 73 35 L 73 36 L 73 37 L 73 38 L 73 39 L 73 40 L 72 40 L 72 41 L 72 42 L 72 43 L 72 44 L 72 45 L 72 46 L 71 47 L 71 48 L 71 49 L 71 50 L 71 51 L 70 51 L 70 52 L 70 53 L 70 54 L 69 54 L 69 55 L 69 56 L 68 57 L 68 58 L 68 59 L 67 60 L 67 61 L 67 62 L 66 62 L 66 63 L 66 64 L 65 64 L 65 65 L 65 66 L 64 66 L 64 67 L 63 68 L 63 69 L 62 70 L 62 71 L 61 72 L 60 73 L 60 74 L 59 74 L 59 75 L 58 76 L 58 77 L 57 77 L 57 78 L 56 79 L 55 80 L 54 81 L 54 82 L 53 82 L 53 83 L 52 83 L 52 84 L 51 84 L 51 85 L 50 85 L 50 86 L 49 86 L 48 87 L 47 88 L 46 89 L 45 90 L 44 91 L 43 91 L 43 92 L 42 92 L 42 93 L 41 93 L 40 94 L 39 94 L 39 95 L 38 95 L 37 96 L 36 96 L 36 97 L 35 97 L 34 98 L 33 98 L 32 99 L 31 99 L 30 100 L 29 100 L 29 101 L 28 101 L 27 101 L 27 102 L 26 102 L 25 102 L 25 103 L 24 103 L 23 103 L 22 104 L 21 104 L 20 105 L 19 105 L 18 105 L 17 106 L 16 106 L 15 106 L 14 107 L 13 107 L 12 107 L 11 107 L 10 108 L 9 108 L 8 108 L 7 108 L 6 109 L 5 109 L 4 109 L 3 109 L 2 109 L 1 109 L 0 110 L -1 110 L -2 110 L -3 110 L -4 110 L -5 110 L -6 110 L -7 110 L -8 110 L -9 110 L -10 110 L -11 110 L -12 110 L -13 110 L -14 110 L -15 110 L -16 110 L -17 110 L -18 110 L -19 110 L -20 110 L -21 110 L -22 110 L -23 110 L -24 110 L -25 110 L -26 109 L -27 109 L -28 109 L -29 109 L -30 109 L -31 109 L -32 108 L -33 108 L -34 108 L -35 108 L -36 108 L -36 107 L -37 107 L -38 107 L -39 107 L -40 106 L -41 106 L -42 106 L -43 105 L -44 105 L -45 105 L -46 104 L -47 104 L -48 104 L -49 103 L -50 103 L -51 102 L -52 102 L -53 101 L -54 101 L -55 100 L -56 100 L -57 99 L -58 99 L -59 98 L -60 98 L -60 97 L -61 97 L -62 97 L -62 96 L -63 96 L -64 95 L -65 95 L -66 94 L -67 93 L -68 93 L -68 92 L -69 92 L -70 91 L -71 91 L -71 90 L -72 90 L -72 89 L -73 89 L -74 88 L -75 87 L -76 86 L -77 86 L -77 85 L -78 85 L -78 84 L -79 84 L -79 83 L -80 83 L -80 82 L -81 81 L -82 81 L -82 80 L -83 80 L -83 79 L -84 79 L -84 78 L -85 77 L -86 76 L -87 75 L -88 74 L -88 73 L -89 73 L -89 72 L -90 72 L -90 71 L -90 70 L -91 70 L -91 69 L -92 68 L -93 67 L -93 66 L -94 65 L -95 64 L -95 63 L -96 62 L -96 61 L -97 61 L -97 60 L -97 59 L -98 59 L -98 58 L -98 57 L -99 57 L -99 56 L -99 55 L -100 54 L -100 53 L -101 52 L -101 51 L -101 50 L -102 50 L -102 49 L -102 48 L -103 47 L -103 46 L -103 45 L -104 45 L -104 44 L -104 43 L -104 42 L -105 41 L -105 40 L -105 39 L -105 38 L -106 37 L -106 36 L -106 35 L -106 34 L -107 33 L -107 32 L -107 31 L -107 30 L -107 29 L -107 28 L -108 27 L -108 26 L -108 25 L -108 24 L -108 23 L -108 22 L -108 21 L -108 20 L -108 19 L -108 18 L -108 17 L -108 16 L -108 15 L -108 14 L -108 13 L -108 12 L -108 11 L -108 10 L -108 9 L -108 8 L -108 7 L -108 6 L -108 5 L -108 4 L -107 3 L -107 2 L -107 1 L -107 0 L -107 -1 L -107 -2 L -107 -3 L -106 -3 L -106 -4 L -106 -5 L -106 -6 L -106 -7 L -105 -8 L -105 -9 L -105 -10 L -104 -11 L -104 -12 L -104 -13 L -104 -14 L -103 -14 L -103 -15 L -103 -16 L -102 -17 L -102 -18 L -102 -19 L -101 -19 L -101 -20 L -101 -21 L -100 -21 L -100 -22 L -100 -23 L -99 -24 L -99 -25 L -98 -26 L -98 -27 L -97 -28 L -97 -29 L -96 -29 L -96 -30 L -95 -31 L -95 -32 L -94 -33 L -93 -34 L -93 -35 L -92 -35 L -92 -36 L -91 -37 L -91 -38 L -90 -38 L -90 -39 L -89 -39 L -89 -40 L -88 -41 L -87 -42 L -86 -43 L -86 -44 L -85 -44 L -85 -45 L -84 -45 L -83 -46 L -82 -47 L -81 -48 L -80 -48 L -80 -49 L -79 -50 L -78 -51 L -77 -51 L -77 -52 L -76 -52 L -75 -53 L -74 -54 L -73 -54 L -73 -55 L -72 -55 L -71 -55 L -71 -56 L -70 -56 L -69 -57 L -68 -57 L -67 -58 L -66 -58 L -66 -59 L -65 -59 L -64 -59 L -64 -60 L -63 -60 L -62 -60 L -61 -61 L -60 -61 L -59 -62 L -58 -62 L -57 -62 L -56 -63 L -55 -63 L -54 -63 L -53 -64 L -52 -64 L -51 -64 L -50 -64 L -49 -65 L -48 -65 L -47 -65 L -46 -65 L -45 -65 L -44 -65 L -44 -66 L -43 -66 L -42 -66 L -41 -66 L -40 -66 L -39 -66 L -38 -66 L -37 -66 L -36 -66 L -35 -66 L -34 -66 L -33 -66 L -32 -66 L -31 -66 L -30 -66 L -29 -66 L -28 -65 L -27 -65 L -26 -65 L -25 -65 L -24 -65 L -23 -65 L -23 -64 L -22 -64 L -21 -64 L -20 -64 L -19 -63 L -18 -63 L -17 -63 L -17 -62 L -16 -62 L -15 -62 L -14 -61 L -13 -61 L -12 -61 L -12 -60 L -11 -60 L -10 -59 L -9 -59 L -9 -58 L -8 -58 L -7 -58 L -7 -57 L -6 -57 L -6 -56 L -5 -56 L -4 -55 L -3 -54 L -2 -54 L -2 -53 L -1 -53 L -1 -52 L 0 -52 L 0 -51 L 1 -51 L 1 -50 L 2 -49 L 2 -48 L 3 -48 L 3 -47 L 4 -46 L 4 -45 L 5 -45 L 5 -44 L 5 -43 L 6 -43 L 6 -42 L 6 -41 L 6 -40 L 7 -40 L 7 -39 L 7 -38 L 7 -37 L 8 -36 L 8 -35 L 8 -34 L 8 -33 L 8 -32 L 8 -31 L 8 -30 L 8 -29 L 8 -28 L 7 -27 L 7 -26 L 7 -25 L 7 -24 L 6 -24 L 6 -23 L 6 -22 L 5 -22 L 5 -21 L 4 -21 L 4 -20 L 3 -19 L 2 -18 L 1 -18 L 1 -17 L 0 -17 L 0 -16 L -1 -16 L -2 -16 L -3 -15 L -4 -15 L -5 -15 L -6 -15 L -7 -15 L -8 -15 L -9 -15 L -10 -15 L -11 -15 L -11 -16 L -12 -16 L -13 -16 L -14 -16 L -14 -17 L -15 -17 L -15 -18 L -16 -18 L -17 -18 L -17 -19 L -18 -19 L -18 -20 L -19 -20 L -19 -21 L -20 -22 L -20 -23 L -21 -23 L -21 -24 L -21 -25 L -22 -25 L -22 -26 L -22 -27 L -23 -27 L -23 -28 L -23 -29 L -23 -30 L -24 -30 L -24 -31 L -24 -32 L -24 -33 L -24 -34 L -24 -35 L -24 -36 L -24 -37 L -24 -38 L -24 -39 L -24 -40 L -24 -41 L -24 -42 L -24 -43 L -24 -44 L -23 -44 L -23 -45 L -23 -46 L -23 -47 L -22 -48 L -22 -49 L -22 -50 L -21 -50 L -21 -51 L -21 -52 L -20 -52 L -20 -53 L -20 -54 L -19 -54 L -19 -55 L -19 -56 L -18 -56 L -18 -57 L -17 -58 L -17 -59 L -16 -59 L -16 -60 L -15 -61 L -14 -62 L -14 -63 L -13 -63 L -13 -64 L -12 -64 L -12 -65 L -11 -65 L -11 -66 L -10 -66 L -10 -67 L -9 -67 L -9 -68 L -8 -68 L -7 -68 L -7 -69 L -6 -69 L -6 -70 L -5 -70 L -4 -71 L -3 -71 L -3 -72 L -2 -72 L -1 -73 L 0 -73 L 1 -74 L 2 -74 L 2 -75 L 3 -75 L 4 -75 L 4 -76 L 5 -76 L 6 -76 L 7 -77 L 8 -77 L 9 -77 L 9 -78 L 10 -78 L 11 -78 L 12 -78 L 12 -79 L 13 -79 L 14 -79 L 15 -79 L 16 -79 L 16 -80 L 17 -80 L 18 -80 L 19 -80 L 20 -80 L 21 -80 L 22 -81 L 23 -81 L 24 -81 L 25 -81 L 26 -81 L 27 -81 L 28 -81 L 29 -81 L 30 -81 L 31 -81 L 32 -81 L 33 -81 L 34 -81 L 35 -81 L 36 -81 L 37 -81 L 38 -81 L 39 -81 L 40 -81 L 41 -80 L 42 -80 L 43 -80 L 44 -80 L 45 -80 L 46 -80 L 47 -79 L 48 -79 L 49 -79 L 50 -79 L 51 -78 L 52 -78 L 53 -78 L 54 -78 L 54 -77 L 55 -77 L 56 -77 L 57 -76 L 58 -76 L 59 -76 L 60 -75 L 61 -75 L 62 -75 L 62 -74 L 63 -74 L 64 -73 L 65 -73 L 66 -73 L 66 -72 L 67 -72 L 68 -71 L 69 -71 L 70 -70 L 71 -70 L 72 -69 L 73 -68 L 74 -68 L 74 -67 L 75 -67 L 76 -66 L 77 -66 L 77 -65 L 78 -65 L 79 -64 L 80 -63 L 81 -62 L 82 -61 L 83 -61 L 83 -60 L 84 -60 L 85 -59 L 86 -58 L 87 -57 L 88 -56 L 88 -55 L 89 -55 L 89 -54 L 90 -54 L 90 -53 L 91 -52 L 92 -51 L 93 -50 L 94 -49 L 94 -48 L 95 -47 L 96 -46 L 96 -45 L 97 -45 L 97 -44 L 98 -43 L 98 -42 L 99 -42 L 99 -41 L 100 -40 L 100 -39 L 101 -38 L 101 -37 L 102 -36 L 102 -35 L 103 -35 L 103 -34 L 103 -33 L 104 -33 L 104 -32 L 104 -31 L 105 -31 L 105 -30 L 105 -29 L 106 -29 L 106 -28 L 106 -27 L 106 -26 L 107 -26 L 107 -25 L 107 -24 L 108 -23 L 108 -22 L 108 -21 L 109 -20 L 109 -19 L 109 -18 L 109 -17 L 110 -17 L 110 -16 L 110 -15 L 110 -14 L 110 -13 L 111 -12 L 111 -11 L 111 -10 L 111 -9 L 111 -8 L 112 -7 L 112 -6 L 112 -5 L 112 -4 L 112 -3 L 112 -2 L 112 -1 L 112 0 L 112 1 L 113 2 L 113 3 L 113 4 L 113 5 L 113 6 L 113 7 L 113 8 L 113 9 L 113 10 L 113 11 L 113 12 L 113 13 L 112 14 L 112 15 L 112 16 L 112 17 L 112 18 L 112 19 L 112 20 L 112 21 L 112 22 L 112 23 L 111 23 L 111 24 L 111 25 L 111 26 L 111 27 L 111 28 L 110 29 L 110 30 L 110 31 L 110 32 L 109 32 L 109 33 L 109 34 L 109 35 L 108 36 L 108 37 L 108 38 L 107 39 L 107 40 L 107 41 L 106 42 L 106 43 L 106 44 L 105 45 L 105 46 L 104 47 L 104 48 L 103 49 L 103 50 L 102 51 L 102 52 L 101 53 L 101 54 L 100 55 L 100 56 L 99 56 L 99 57 L 99 58 L 98 58 L 98 59 L 97 60 L 97 61 L 96 62 L 95 63 L 95 64 L 94 64 L 94 65 L 93 65 L 93 66 L 92 67 L 92 68 L 91 68 L 91 69 L 90 70 L 89 71 L 88 72 L 87 73 L 87 74 L 86 74 L 85 75 L 84 76 L 83 77 L 82 78 L 81 79 L 80 79 L 80 80 L 79 81 L 78 81 L 78 82 L 77 82 L 76 83 L 75 84 L 74 85 L 73 85 L 73 86 L 72 86 L 72 87 L 71 87 L 70 87 L 70 88 L 69 88 L 68 89 L 67 89 L 66 90 L 65 91 L 64 91 L 63 92 L 62 93 L 61 93 L 60 94 L 59 94 L 58 95 L 57 95 L 56 95 L 55 96 L 54 96 L 53 97 L 52 97 L 51 97 L 50 98 L 49 98 L 48 98 L 47 99 L 46 99 L 45 99 L 45 100 L 44 100 L 43 100 L 42 100 L 41 101 L 40 101 L 39 101 L 38 101 L 37 102 L 36 102 L 35 102 L 34 102 L 33 102 L 32 102 L 31 103 L 30 103 L 29 103 L 28 103 L 27 103 L 26 103 L 25 103 L 24 103 L 23 103 L 22 103 L 21 103 L 20 103 L 19 103 L 18 103 L 17 103 L 16 103 L 15 103 L 14 103 L 13 103 L 12 103 L 11 103 L 10 103 L 9 103 L 8 103 L 7 103 L 6 102 L 5 102 L 4 102 L 3 102 L 2 102 L 1 102 L 1 101 L 0 101 L -1 101 L -2 101 L -3 101 L -3 100 L -4 100 L -5 100 L -6 100 L -7 100 L -7 99 L -8 99 L -9 99 L -10 98 L -11 98 L -12 98 L -13 97 L -14 97 L -15 97 L -15 96 L -16 96 L -17 96 L -17 95 L -18 95 L -19 95 L -19 94 L -20 94 L -21 94 L -21 93 L -22 93 L -23 92 L -24 92 L -25 91 L -26 91 L -26 90 L -27 90 L -28 89 L -29 89 L -29 88 L -30 88 L -30 87 L -31 87 L -32 86 L -33 85 L -34 85 L -34 84 L -35 84 L -35 83 L -36 83 L -37 82 L -38 81 L -39 80 L -40 79 L -41 78 L -41 77 L -42 77 L -42 76 L -43 76 L -43 75 L -44 75 L -44 74 L -45 73 L -46 72 L -46 71 L -47 71 L -47 70 L -48 69 L -48 68 L -49 67 L -49 66 L -50 66 L -50 65 L -51 64 L -51 63 L -52 62 L -52 61 L -53 60 L -53 59 L -53 58 L -54 58 L -54 57 L -54 56 L -55 55 L -55 54 L -55 53 L -56 52 L -56 51 L -56 50 L -56 49 L -57 48 L -57 47 L -57 46 L -57 45 L -57 44 L -57 43 L -58 43 L -58 42 L -58 41 L -58 40 L -58 39 L -58 38 L -58 37 L -58 36 L -58 35 L -58 34 L -58 33 L -58 32 L -58 31 L -58 30 L -57 30 L -57 29 L -57 28 L -57 27 L -57 26 L -57 25 L -56 25 L -56 24 L -56 23 L -56 22 L -56 21 L -55 21 L -55 20 L -55 19 L -54 18 L -54 17 L -54 16 L -53 16 L -53 15 L -53 14 L -52 14 L -52 13 L -51 12 L -51 11 L -50 11 L -50 10 L -49 9 L -49 8 L -48 8 L -48 7 L -47 7 L -47 6 L -46 6 L -46 5 L -45 5 L -45 4 L -44 4 L -43 3 L -42 3 L -42 2 L -41 2 L -41 1 L -40 1 L -39 1 L -39 0 L -38 0 L -37 0 L -37 -1 L -36 -1 L -35 -1 L -34 -1 L -34 -2 L -33 -2 L -32 -2 L -31 -2 L -30 -2 L -29 -2 L -28 -2 L -27 -2 L -26 -2 L -25 -2 L -24 -2 L -23 -2 L -23 -1 L -22 -1 L -21 -1 L -20 0 L -19 0 L -19 1 L -18 1 L -17 2 L -16 3 L -15 4 L -15 5 L -14 5 L -14 6 L -14 7 L -13 7 L -13 8 L -13 9 L -13 10 L -13 11 L -13 12 L -13 13 L -13 14 L -13 15 L -13 16 L -13 17 L -14 17 L -14 18 L -14 19 L -15 19 L -15 20 L -15 21 L -16 21 L -16 22 L -17 22 L -17 23 L -17 24 L -18 24 L -18 25 L -19 25 L -20 26 L -21 26 L -21 27 L -22 27 L -23 28 L -24 28 L -24 29 L -25 29 L -26 29 L -27 30 L -28 30 L -29 30 L -30 31 L -31 31 L -32 31 L -33 31 L -34 31 L -35 31 L -36 31 L -36 32 L -37 32 L -38 32 L -39 32 L -40 32 L -40 31 L -41 31 L -42 31 L -43 31 L -44 31 L -45 31 L -46 31 L -47 31 L -47 30 L -48 30 L -49 30 L -50 30 L -50 29 L -51 29 L -52 29 L -53 29 L -53 28 L -54 28 L -55 28 L -56 27 L -57 27 L -58 26 L -59 26 L -59 25 L -60 25 L -61 24 L -62 24 L -62 23 L -63 23 L -64 23 L -64 22 L -65 22 L -65 21 L -66 21 L -66 20 L -67 20 L -67 19 L -68 19 L -69 18 L -70 17 L -71 16 L -72 15 L -72 14 L -73 14 L -73 13 L -74 13 L -74 12 L -75 12 L -75 11 L -76 10 L -76 9 L -77 9 L -77 8 L -78 7 L -78 6 L -79 6 L -79 5 L -79 4 L -80 4 L -80 3 L -80 2 L -81 2 L -81 1 L -81 0 L -82 0 L -82 -1 L -82 -2 L -83 -2 L -83 -3 L -83 -4 L -84 -5 L -84 -6 L -84 -7 L -85 -8 L -85 -9 L -85 -10 L -86 -11 L -86 -12 L -86 -13 L -86 -14 L -87 -15 L -87 -16 L -87 -17 L -87 -18 L -87 -19 L -87 -20 L -87 -21 L -88 -22 L -88 -23 L -88 -24 L -88 -25 L -88 -26 L -88 -27 L -88 -28 L -88 -29 L -88 -30 L -88 -31 L -88 -32 L -88 -33 L -88 -34 L -88 -35 L -88 -36 L -88 -37 L -87 -38 L -87 -39 L -87 -40 L -87 -41 L -87 -42 L -87 -43 L -87 -44 L -86 -44 L -86 -45 L -86 -46 L -86 -47 L -86 -48 L -85 -49 L -85 -50 L -85 -51 L -85 -52 L -84 -53 L -84 -54 L -84 -55 L -83 -56 L -83 -57 L -83 -58 L -82 -59 L -82 -60 L -81 -61 L -81 -62 L -80 -63 L -80 -64 L -80 -65 L -79 -65 L -79 -66 L -79 -67 L -78 -67 L -78 -68 L -77 -69 L -77 -70 L -76 -71 L -76 -72 L -75 -73 L -74 -74 L -74 -75 L -73 -76 L -72 -77 L -72 -78 L -71 -78 L -71 -79 L -70 -80 L -69 -81 L -68 -82 L -68 -83 L -67 -83 L -67 -84 L -66 -85 L -65 -86 L -64 -87 L -63 -88 L -62 -89 L -61 -90 L -60 -91 L -59 -91 L -59 -92 L -58 -92 L -58 -93 L -57 -93 L -57 -94 L -56 -94 L -55 -95 L -54 -95 L -54 -96 L -53 -96 L -53 -97 L -52 -97 L -51 -98 L -50 -98 L -50 -99 L -49 -99 L -48 -100 L -47 -100 L -47 -101 L -46 -101 L -45 -102 L -44 -102 L -43 -103 L -42 -103 L -41 -104 L -40 -105 L -39 -105 L -38 -106 L -37 -106 L -36 -107 L -35 -107 L -34 -107 L -33 -108 L -32 -108 L -31 -109 L -30 -109 L -29 -109 L -28 -110 L -27 -110 L -26 -110 L -25 -111 L -24 -111 L -23 -111 L -22 -112 L -21 -112 L -20 -112 L -19 -112 L -18 -113 L -17 -113 L -16 -113 L -15 -113 L -14 -113 L -13 -114 L -12 -114 L -11 -114 L -10 -114 L -9 -114 L -8 -114 L -7 -114 L -6 -115 L -5 -115 L -4 -115 L -3 -115 L -2 -115 L -1 -115 L 0 -115 L 1 -115 L 2 -115 L 3 -115 L 4 -115 L 5 -115 L 6 -115 L 7 -115 L 8 -115 L 9 -115 L 10 -115 L 11 -115 L 12 -115 L 13 -115 L 14 -114 L 15 -114 L 16 -114 L 17 -114 L 18 -114 L 19 -114 L 20 -114 L 21 -114 L 21 -113 L 22 -113 L 23 -113 L 24 -113 L 25 -113 L 26 -112 L 27 -112 L 28 -112 L 29 -112 L 30 -111 L 31 -111 L 32 -111 L 33 -111 L 33 -110 L 34 -110 L 35 -110 L 36 -110 L 36 -109 L 37 -109 L 38 -109 L 39 -108 L 40 -108 L 41 -108 L 41 -107 L 42 -107 L 43 -107 L 43 -106 L 44 -106 L 45 -106 L 46 -105 L 47 -105 L 48 -104 L 49 -104 L 50 -103 L 51 -103 L 52 -102 L 53 -101 L 54 -101 L 55 -100 L 56 -100 L 56 -99 L 57 -99 L 58 -99 L 58 -98 L 59 -98 L 59 -97 L 60 -97 L 61 -96 L 62 -96 L 62 -95 L 63 -95 L 64 -94 L 65 -93 L 66 -92 L 67 -92 L 67 -91 L 68 -91 L 68 -90 L 69 -90 L 69 -89 L 70 -89 L 71 -88 L 72 -87 L 73 -86 L 73 -85 L 74 -85 L 74 -84 L 75 -84 L 75 -83 L 76 -83 L 76 -82 L 77 -82 L 77 -81 L 78 -80 L 79 -79 L 80 -78 L 80 -77 L 81 -76 L 82 -75 L 82 -74 L 83 -74 L 83 -73 L 84 -72 L 84 -71 L 85 -71 L 85 -70 L 85 -69 L 86 -69 L 86 -68 L 87 -68 L 87 -67 L 87 -66 L 88 -66 L 88 -65 L 88 -64 L 89 -64 L 89 -63 L 89 -62 L 90 -62 L 90 -61 L 90 -60 L 91 -60 L 91 -59 L 91 -58 L 92 -58 L 92 -57 L 92 -56 L 93 -55 L 93 -54 L 93 -53 L 94 -52 L 94 -51 L 94 -50 L 95 -50 L 95 -49 L 95 -48 L 95 -47 L 96 -46 L 96 -45 L 96 -44 L 96 -43 L 97 -42 L 97 -41 L 97 -40 L 97 -39 L 97 -38 L 98 -37 L 98 -36 L 98 -35 L 98 -34 L 98 -33 L 98 -32 L 98 -31 L 98 -30 L 98 -29 L 99 -28 L 99 -27 L 99 -26 L 99 -25 L 99 -24 L 99 -23 L 99 -22 L 99 -21 L 99 -20 L 99 -19 L 98 -18 L 98 -17 L 98 -16 L 98 -15 L 98 -14 L 98 -13 L 98 -12 L 98 -11 L 98 -10 L 97 -10 L 97 -9 L 97 -8 L 97 -7 L 97 -6 L 97 -5 L 96 -4 L 96 -3 L 96 -2 L 96 -1 L 95 -1 L 95 0 L 95 1 L 95 2 L 94 2 L 94 3 L 94 4 L 94 5 L 93 6 L 93 7 L 92 8 L 92 9 L 92 10 L 91 10 L 91 11 L 91 12 L 90 12 L 90 13 L 90 14 L 89 14 L 89 15 L 89 16 L 88 16 L 88 17 L 87 18 L 87 19 L 86 19 L 86 20 L 85 21 L 85 22 L 84 22 L 84 23 L 83 24 L 82 25 L 82 26 L 81 26 L 81 27 L 80 28 L 79 28 L 79 29 L 78 30 L 77 31 L 76 32 L 75 33 L 74 33 L 74 34 L 73 34 L 73 35 L 72 35 L 72 36 L 71 36 L 71 37 L 70 37 L 69 38 L 68 38 L 68 39 L 67 39 L 66 39 L 66 40 L 65 40 L 65 41 L 64 41 L 63 41 L 63 42 L 62 42 L 61 42 L 61 43 L 60 43 L 59 43 L 59 44 L 58 44 L 57 44 L 57 45 L 56 45 L 55 45 L 54 45 L 54 46 L 53 46 L 52 46 L 51 46 L 51 47 L 50 47 L 49 47 L 48 47 L 47 47 L 47 48 L 46 48 L 45 48 L 44 48 L 43 48 L 42 48 L 41 48 L 40 48 L 39 48 L 38 48 L 38 49 L 37 49 L 36 49 L 36 48 L 35 48 L 34 48 L 33 48 L 32 48 L 31 48 L 30 48 L 29 48 L 28 48 L 28 47 L 27 47 L 26 47 L 25 47 L 24 47 L 24 46 L 23 46 L 22 46 L 21 46 L 21 45 L 20 45 L 19 45 L 19 44 L 18 44 L 17 44 L 17 43 L 16 43 L 15 42 L 14 42 L 14 41 L 13 41 L 13 40 L 12 40 L 12 39 L 11 39 L 11 38 L 10 38 L 9 37 L 9 36 L 8 36 L 8 35 L 7 35 L 7 34 L 7 33 L 6 33 L 6 32 L 5 31 L 5 30 L 5 29 L 4 29 L 4 28 L 4 27 L 4 26 L 4 25 L 4 24 L 4 23 L 4 22 L 4 21 L 4 20 L 4 19 L 4 18 L 4 17 L 5 17 L 5 16 L 5 15 L 6 15 L 6 14 L 7 14 L 7 13 L 8 12 L 9 11 L 10 11 L 10 10 L 11 10 L 12 10 L 12 9 L 13 9 L 14 9 L 15 9 L 15 8 L 16 8 L 17 8 L 18 8 L 19 8 L 20 8 L 21 8 L 21 9 L 22 9 L 23 9 L 24 9 L 24 10 L 25 10 L 26 10 L 26 11 L 27 11 L 28 11 L 28 12 L 29 12 L 30 13 L 31 14 L 32 14 L 32 15 L 33 16 L 33 17 L 34 17 L 34 18 L 35 18 L 35 19 L 35 20 L 36 20 L 36 21 L 37 22 L 37 23 L 37 24 L 38 24 L 38 25 L 38 26 L 39 27 L 39 28 L 39 29 L 39 30 L 39 31 L 40 31 L 40 32 L 40 33 L 40 34 L 40 35 L 40 36 L 40 37 L 40 38 L 40 39 L 40 40 L 40 41 L 40 42 L 40 43 L 40 44 L 39 44 L 39 45 L 39 46 L 39 47 L 39 48 L 38 49 L 38 50 L 38 51 L 38 52 L 37 52 L 37 53 L 37 54 L 37 55 L 36 55 L 36 56 L 36 57 L 35 57 L 35 58 L 35 59 L 34 59 L 34 60 L 34 61 L 33 61 L 33 62 L 32 63 L 32 64 L 31 65 L 30 66 L 30 67 L 29 67 L 29 68 L 28 68 L 28 69 L 27 69 L 27 70 L 26 71 L 25 72 L 25 73 L 24 73 L 23 74 L 23 75 L 22 75 L 21 76 L 20 77 L 19 77 L 19 78 L 18 78 L 18 79 L 17 79 L 17 80 L 16 80 L 15 81 L 14 81 L 13 82 L 12 82 L 12 83 L 11 83 L 10 84 L 9 84 L 8 85 L 7 85 L 7 86 L 6 86 L 5 86 L 5 87 L 4 87 L 3 87 L 2 88 L 1 88 L 0 88 L -1 89 L -2 89 L -3 89 L -3 90 L -4 90 L -5 90 L -6 90 L -7 91 L -8 91 L -9 91 L -10 91 L -11 92 L -12 92 L -13 92 L -14 92 L -15 92 L -16 92 L -17 93 L -18 93 L -19 93 L -20 93 L -21 93 L -22 93 L -23 93 L -24 93 L -25 93 L -26 93 L -27 93 L -28 93 L -29 93 L -30 93 L -31 93 L -32 93 L -33 93 L -34 93 L -35 93 L -36 93 L -37 92 L -38 92 L -39 92 L -40 92 L -41 92 L -42 92 L -43 91 L -44 91 L -45 91 L -46 91 L -47 91 L -48 90 L -49 90 L -50 90 L -51 89 L -52 89 L -53 89 L -54 89 L -54 88 L -55 88 L -56 88 L -57 87 L -58 87 L -59 87 L -59 86 L -60 86 L -61 86 L -61 85 L -62 85 L -63 85 L -64 84 L -65 84 L -66 83 L -67 83 L -68 82 L -69 82 L -70 81 L -71 80 L -72 80 L -73 79 L -74 78 L -75 78 L -76 77 L -77 76 L -78 76 L -79 75 L -80 74 L -81 73 L -82 73 L -82 72 L -83 72 L -83 71 L -84 71 L -84 70 L -85 70 L -85 69 L -86 69 L -86 68 L -87 68 L -88 67 L -89 66 L -90 65 L -91 64 L -92 63 L -92 62 L -93 62 L -93 61 L -94 61 L -94 60 L -95 60 L -95 59 L -95 58 L -96 58 L -96 57 L -97 57 L -97 56 L -98 55 L -99 54 L -99 53 L -100 52 L -101 51 L -101 50 L -102 49 L -102 48 L -103 48 L -103 47 L -103 46 L -104 46 L -104 45 L -104 44 L -105 44 L -105 43 L -105 42 L -106 42 L -106 41 L -106 40 L -107 40 L -107 39 L -107 38 L -108 38 L -108 37 L -108 36 L -109 35 L -109 34 L -109 33 L -110 33 L -110 32 L -110 31 L -110 30 L -111 30 L -111 29 L -111 28 L -111 27 L -112 27 L -112 26 L -112 25 L -112 24 L -113 23 L -113 22 L -113 21 L -113 20 L -113 19 L -114 19 L -114 18 L -114 17 L -114 16 L -114 15 L -114 14 L -115 13 L -115 12 L -115 11 L -115 10 L -115 9 L -115 8 L -115 7 L -115 6 L -115 5 L -115 4 L -115 3 L -115 2 L -115 1 L -115 0 L -115 -1 L -115 -2 L -115 -3 L -115 -4 L -115 -5 L -115 -6 L -115 -7 L -115 -8 L -115 -9 L -115 -10 L -115 -11 L -115 -12 L -115 -13 L -115 -14 L -114 -14 L -114 -15 L -114 -16 L -114 -17 L -114 -18 L -114 -19 L -114 -20 L -113 -20 L -113 -21 L -113 -22 L -113 -23 L -113 -24 L -112 -25 L -112 -26 L -112 -27 L -112 -28 L -111 -29 L -111 -30 L -111 -31 L -110 -32 L -110 -33 L -110 -34 L -109 -34 L -109 -35 L -109 -36 L -109 -37 L -108 -37 L -108 -38 L -108 -39 L -107 -39 L -107 -40 L -107 -41 L -106 -41 L -106 -42 L -106 -43 L -105 -44 L -105 -45 L -104 -46 L -104 -47 L -103 -48 L -103 -49 L -102 -50 L -101 -51 L -101 -52 L -100 -53 L -99 -54 L -99 -55 L -98 -55 L -98 -56 L -97 -57 L -97 -58 L -96 -58 L -96 -59 L -95 -59 L -95 -60 L -94 -61 L -93 -62 L -93 -63 L -92 -64 L -91 -65 L -90 -66 L -89 -67 L -88 -67 L -88 -68 L -87 -68 L -87 -69 L -86 -69 L -86 -70 L -85 -70 L -85 -71 L -84 -71 L -84 -72 L -83 -72 L -83 -73 L -82 -73 L -81 -74 L -80 -75 L -79 -76 L -78 -77 L -77 -77 L -76 -78 L -75 -79 L -74 -79 L -74 -80 L -73 -80 L -72 -81 L -71 -81 L -70 -82 L -69 -83 L -68 -83 L -67 -84 L -66 -84 L -65 -85 L -64 -85 L -63 -86 L -62 -86 L -61 -87 L -60 -87 L -59 -87 L -59 -88 L -58 -88 L -57 -88 L -56 -89 L -55 -89 L -54 -89 L -53 -90 L -52 -90 L -51 -90 L -50 -91 L -49 -91 L -48 -91 L -47 -91 L -47 -92 L -46 -92 L -45 -92 L -44 -92 L -43 -92 L -43 -93 L -42 -93 L -41 -93 L -40 -93 L -39 -93 L -38 -93 L -37 -93 L -37 -94 L -36 -94 L -35 -94 L -34 -94 L -33 -94 L -32 -94 L -31 -94 L -30 -94 L -29 -94 L -28 -94 L -27 -94 L -26 -94 L -25 -94 L -24 -94 L -23 -94 L -22 -94 L -21 -94 L -20 -94 L -19 -94 L -18 -94 L -17 -94 L -16 -93 L -15 -93 L -14 -93 L -13 -93 L -12 -93 L -11 -93 L -11 -92 L -10 -92 L -9 -92 L -8 -92 L -7 -92 L -6 -91 L -5 -91 L -4 -91 L -3 -91 L -3 -90 L -2 -90 L -1 -90 L 0 -90 L 0 -89 L 1 -89 L 2 -89 L 2 -88 L 3 -88 L 4 -88 L 5 -88 L 5 -87 L 6 -87 L 7 -87 L 7 -86 L 8 -86 L 9 -85 L 10 -85 L 11 -84 L 12 -84 L 12 -83 L 13 -83 L 14 -82 L 15 -82 L 15 -81 L 16 -81 L 17 -80 L 18 -80 L 18 -79 L 19 -79 L 19 -78 L 20 -78 L 21 -77 L 22 -77 L 22 -76 L 23 -76 L 23 -75 L 24 -75 L 24 -74 L 25 -74 L 25 -73 L 26 -72 L 27 -71 L 28 -70 L 29 -69 L 29 -68 L 30 -68 L 30 -67 L 31 -66 L 31 -65 L 32 -65 L 32 -64 L 33 -63 L 33 -62 L 34 -62 L 34 -61 L 34 -60 L 35 -60 L 35 -59 L 35 -58 L 36 -58 L 36 -57 L 36 -56 L 37 -55 L 37 -54 L 37 -53 L 38 -53 L 38 -52 L 38 -51 L 38 -50 L 39 -50 L 39 -49 L 39 -48 L 39 -47 L 39 -46 L 39 -45 L 40 -45 L 40 -44 L 40 -43 L 40 -42 L 40 -41 L 40 -40 L 40 -39 L 40 -38 L 40 -37 L 40 -36 L 40 -35 L 40 -34 L 40 -33 L 40 -32 L 39 -32 L 39 -31 L 39 -30 L 39 -29 L 39 -28 L 38 -27 L 38 -26 L 38 -25 L 37 -25 L 37 -24 L 37 -23 L 36 -22 L 36 -21 L 35 -21 L 35 -20 L 35 -19 L 34 -19 L 34 -18 L 33 -18 L 33 -17 L 32 -16 L 32 -15 L 31 -15 L 30 -14 L 29 -14 L 29 -13 L 28 -13 L 28 -12 L 27 -12 L 26 -12 L 26 -11 L 25 -11 L 24 -11 L 24 -10 L 23 -10 L 22 -10 L 21 -10 L 21 -9 L 20 -9 L 19 -9 L 18 -9 L 17 -9 L 16 -9 L 15 -9 L 15 -10 L 14 -10 L 13 -10 L 12 -10 L 11 -11 L 10 -11 L 10 -12 L 9 -12 L 8 -13 L 7 -14 L 7 -15 L 6 -15 L 6 -16 L 5 -16 L 5 -17 L 5 -18 L 4 -18 L 4 -19 L 4 -20 L 4 -21 L 4 -22 L 4 -23 L 4 -24 L 4 -25 L 4 -26 L 4 -27 L 4 -28 L 4 -29 L 4 -30 L 5 -30 L 5 -31 L 5 -32 L 6 -33 L 6 -34 L 7 -35 L 7 -36 L 8 -36 L 8 -37 L 9 -37 L 9 -38 L 10 -39 L 11 -40 L 12 -40 L 12 -41 L 13 -41 L 13 -42 L 14 -42 L 14 -43 L 15 -43 L 16 -44 L 17 -44 L 17 -45 L 18 -45 L 19 -45 L 19 -46 L 20 -46 L 21 -46 L 21 -47 L 22 -47 L 23 -47 L 24 -47 L 24 -48 L 25 -48 L 26 -48 L 27 -48 L 28 -48 L 28 -49 L 29 -49 L 30 -49 L 31 -49 L 32 -49 L 33 -49 L 34 -49 L 35 -49 L 36 -49 L 37 -50 L 38 -50 L 38 -49 L 39 -49 L 40 -49 L 41 -49 L 42 -49 L 43 -49 L 44 -49 L 45 -49 L 46 -49 L 47 -49 L 47 -48 L 48 -48 L 49 -48 L 50 -48 L 51 -48 L 51 -47 L 52 -47 L 53 -47 L 54 -47 L 54 -46 L 55 -46 L 56 -46 L 57 -46 L 57 -45 L 58 -45 L 59 -45 L 60 -44 L 61 -44 L 61 -43 L 62 -43 L 63 -43 L 63 -42 L 64 -42 L 65 -42 L 65 -41 L 66 -41 L 67 -40 L 68 -39 L 69 -39 L 70 -38 L 71 -38 L 71 -37 L 72 -37 L 72 -36 L 73 -36 L 73 -35 L 74 -35 L 75 -34 L 76 -33 L 77 -32 L 78 -31 L 79 -30 L 79 -29 L 80 -29 L 81 -28 L 81 -27 L 82 -27 L 82 -26 L 83 -25 L 84 -24 L 84 -23 L 85 -23 L 85 -22 L 86 -21 L 86 -20 L 87 -20 L 87 -19 L 88 -18 L 88 -17 L 89 -17 L 89 -16 L 89 -15 L 90 -15 L 90 -14 L 90 -13 L 91 -13 L 91 -12 L 91 -11 L 92 -11 L 92 -10 L 92 -9 L 93 -8 L 93 -7 L 93 -6 L 94 -6 L 94 -5 L 94 -4 L 95 -3 L 95 -2 L 95 -1 L 95 0 L 96 0 L 96 1 L 96 2 L 96 3 L 96 4 L 97 4 L 97 5 L 97 6 L 97 7 L 97 8 L 98 9 L 98 10 L 98 11 L 98 12 L 98 13 L 98 14 L 98 15 L 98 16 L 98 17 L 99 18 L 99 19 L 99 20 L 99 21 L 99 22 L 99 23 L 99 24 L 99 25 L 99 26 L 98 27 L 98 28 L 98 29 L 98 30 L 98 31 L 98 32 L 98 33 L 98 34 L 98 35 L 98 36 L 97 37 L 97 38 L 97 39 L 97 40 L 97 41 L 96 42 L 96 43 L 96 44 L 96 45 L 95 46 L 95 47 L 95 48 L 95 49 L 94 49 L 94 50 L 94 51 L 93 52 L 93 53 L 93 54 L 92 55 L 92 56 L 91 57 L 91 58 L 91 59 L 90 59 L 90 60 L 90 61 L 89 61 L 89 62 L 89 63 L 88 63 L 88 64 L 88 65 L 87 65 L 87 66 L 87 67 L 86 67 L 86 68 L 85 69 L 85 70 L 84 70 L 84 71 L 83 72 L 83 73 L 82 74 L 81 75 L 80 76 L 80 77 L 79 77 L 79 78 L 78 79 L 77 80 L 77 81 L 76 81 L 76 82 L 75 82 L 75 83 L 74 83 L 74 84 L 73 85 L 72 86 L 71 87 L 70 87 L 70 88 L 69 88 L 69 89 L 68 89 L 68 90 L 67 90 L 66 91 L 65 92 L 64 93 L 63 94 L 62 94 L 62 95 L 61 95 L 60 96 L 59 96 L 59 97 L 58 97 L 57 98 L 56 99 L 55 99 L 54 100 L 53 101 L 52 101 L 51 102 L 50 102 L 49 103 L 48 103 L 47 103 L 47 104 L 46 104 L 45 105 L 44 105 L 43 105 L 43 106 L 42 106 L 41 106 L 41 107 L 40 107 L 39 107 L 38 108 L 37 108 L 36 108 L 35 109 L 34 109 L 33 109 L 33 110 L 32 110 L 31 110 L 30 110 L 29 111 L 28 111 L 27 111 L 26 111 L 25 112 L 24 112 L 23 112 L 22 112 L 21 112 L 21 113 L 20 113 L 19 113 L 18 113 L 17 113 L 16 113 L 15 113 L 14 113 L 14 114 L 13 114 L 12 114 L 11 114 L 10 114 L 9 114 L 8 114 L 7 114 L 6 114 L 5 114 L 4 114 L 3 114 L 2 114 L 1 114 L 0 114 L -1 114 L -2 114 L -3 114 L -4 114 L -5 114 L -6 114 L -7 113 L -8 113 L -9 113 L -10 113 L -11 113 L -12 113 L -13 113 L -14 112 L -15 112 L -16 112 L -17 112 L -18 112 L -19 111 L -20 111 L -21 111 L -22 111 L -23 110 L -24 110 L -25 110 L -26 110 L -26 109 L -27 109 L -28 109 L -29 108 L -30 108 L -31 108 L -32 107 L -33 107 L -34 106 L -35 106 L -36 105 L -37 105 L -38 104 L -39 104 L -40 104 L -40 103 L -41 103 L -42 103 L -42 102 L -43 102 L -44 101 L -45 101 L -46 100 L -47 100 L -47 99 L -48 99 L -49 99 L -49 98 L -50 98 L -50 97 L -51 97 L -52 97 L -52 96 L -53 96 L -53 95 L -54 95 L -55 94 L -56 93 L -57 92 L -58 92 L -58 91 L -59 91 L -60 90 L -61 89 L -62 88 L -63 87 L -64 86 L -65 85 L -66 84 L -66 83 L -67 83 L -67 82 L -68 82 L -68 81 L -69 81 L -69 80 L -70 79 L -71 78 L -71 77 L -72 77 L -72 76 L -73 75 L -73 74 L -74 74 L -74 73 L -75 72 L -76 71 L -76 70 L -77 69 L -77 68 L -78 67 L -78 66 L -79 66 L -79 65 L -79 64 L -80 64 L -80 63 L -80 62 L -81 62 L -81 61 L -81 60 L -82 59 L -82 58 L -82 57 L -83 57 L -83 56 L -83 55 L -84 54 L -84 53 L -84 52 L -85 51 L -85 50 L -85 49 L -85 48 L -86 47 L -86 46 L -86 45 L -86 44 L -87 43 L -87 42 L -87 41 L -87 40 L -87 39 L -87 38 L -87 37 L -88 36 L -88 35 L -88 34 L -88 33 L -88 32 L -88 31 L -88 30 L -88 29 L -88 28 L -88 27 L -88 26 L -88 25 L -88 24 L -88 23 L -88 22 L -88 21 L -87 20 L -87 19 L -87 18 L -87 17 L -87 16 L -87 15 L -87 14 L -86 13 L -86 12 L -86 11 L -86 10 L -85 9 L -85 8 L -85 7 L -85 6 L -84 6 L -84 5 L -84 4 L -83 3 L -83 2 L -83 1 L -82 1 L -82 0 L -82 -1 L -81 -1 L -81 -2 L -81 -3 L -80 -3 L -80 -4 L -80 -5 L -79 -5 L -79 -6 L -79 -7 L -78 -7 L -78 -8 L -77 -9 L -77 -10 L -76 -10 L -76 -11 L -75 -12 L -75 -13 L -74 -13 L -74 -14 L -73 -14 L -73 -15 L -72 -15 L -72 -16 L -71 -17 L -70 -18 L -69 -19 L -68 -20 L -67 -21 L -66 -21 L -66 -22 L -65 -22 L -65 -23 L -64 -23 L -64 -24 L -63 -24 L -62 -24 L -62 -25 L -61 -25 L -60 -26 L -59 -26 L -59 -27 L -58 -27 L -57 -28 L -56 -28 L -55 -29 L -54 -29 L -53 -29 L -53 -30 L -52 -30 L -51 -30 L -50 -31 L -49 -31 L -48 -31 L -47 -31 L -47 -32 L -46 -32 L -45 -32 L -44 -32 L -43 -32 L -42 -32 L -41 -32 L -40 -32 L -40 -33 L -39 -33 L -38 -33 L -37 -33 L -36 -33 L -36 -32 L -35 -32 L -34 -32 L -33 -32 L -32 -32 L -31 -32 L -30 -32 L -29 -31 L -28 -31 L -27 -31 L -26 -30 L -25 -30 L -24 -30 L -24 -29 L -23 -29 L -22 -29 L -22 -28 L -21 -28 L -21 -27 L -20 -27 L -20 -26 L -19 -26 L -18 -26 L -18 -25 L -17 -24 L -17 -23 L -16 -23 L -16 -22 L -15 -22 L -15 -21 L -14 -20 L -14 -19 L -14 -18 L -13 -18 L -13 -17 L -13 -16 L -13 -15 L -13 -14 L -13 -13 L -13 -12 L -13 -11 L -13 -10 L -13 -9 L -13 -8 L -14 -8 L -14 -7 L -14 -6 L -15 -6 L -15 -5 L -16 -5 L -16 -4 L -17 -3 L -18 -2 L -19 -2 L -19 -1 L -20 -1 L -21 0 L -22 0 L -23 0 L -23 1 L -24 1 L -25 1 L -26 1 L -27 1 L -28 1 L -29 1 L -30 1 L -31 1 L -32 1 L -33 1 L -34 1 L -34 0 L -35 0 L -36 0 L -37 0 L -37 -1 L -38 -1 L -39 -1 L -39 -2 L -40 -2 L -41 -2 L -41 -3 L -42 -3 L -42 -4 L -43 -4 L -44 -5 L -45 -5 L -45 -6 L -46 -6 L -46 -7 L -47 -7 L -47 -8 L -48 -8 L -48 -9 L -49 -9 L -49 -10 L -50 -11 L -50 -12 L -51 -12 L -51 -13 L -52 -14 L -52 -15 L -53 -15 L -53 -16 L -53 -17 L -54 -18 L -54 -19 L -55 -19 L -55 -20 L -55 -21 L -55 -22 L -56 -22 L -56 -23 L -56 -24 L -56 -25 L -57 -26 L -57 -27 L -57 -28 L -57 -29 L -57 -30 L -57 -31 L -58 -31 L -58 -32 L -58 -33 L -58 -34 L -58 -35 L -58 -36 L -58 -37 L -58 -38 L -58 -39 L -58 -40 L -58 -41 L -58 -42 L -58 -43 L -58 -44 L -57 -44 L -57 -45 L -57 -46 L -57 -47 L -57 -48 L -57 -49 L -56 -50 L -56 -51 L -56 -52 L -56 -53 L -55 -54 L -55 -55 L -55 -56 L -54 -57 L -54 -58 L -54 -59 L -53 -60 L -53 -61 L -52 -62 L -52 -63 L -52 -64 L -51 -64 L -51 -65 L -50 -66 L -50 -67 L -49 -68 L -49 -69 L -48 -69 L -48 -70 L -47 -71 L -47 -72 L -46 -72 L -46 -73 L -45 -73 L -45 -74 L -44 -75 L -44 -76 L -43 -76 L -43 -77 L -42 -78 L -41 -78 L -41 -79 L -40 -80 L -39 -81 L -38 -82 L -37 -83 L -36 -84 L -35 -85 L -34 -85 L -34 -86 L -33 -86 L -33 -87 L -32 -87 L -31 -88 L -30 -88 L -30 -89 L -29 -89 L -29 -90 L -28 -90 L -27 -91 L -26 -91 L -26 -92 L -25 -92 L -24 -93 L -23 -93 L -22 -94 L -21 -94 L -21 -95 L -20 -95 L -19 -95 L -19 -96 L -18 -96 L -17 -96 L -16 -97 L -15 -97 L -15 -98 L -14 -98 L -13 -98 L -12 -99 L -11 -99 L -10 -99 L -10 -100 L -9 -100 L -8 -100 L -7 -100 L -6 -101 L -5 -101 L -4 -101 L -3 -102 L -2 -102 L -1 -102 L 0 -102 L 1 -102 L 2 -103 L 3 -103 L 4 -103 L 5 -103 L 6 -103 L 7 -104 L 8 -104 L 9 -104 L 10 -104 L 11 -104 L 12 -104 L 13 -104 L 14 -104 L 15 -104 L 16 -104 L 17 -104 L 18 -104 L 19 -104 L 20 -104 L 21 -104 L 22 -104 L 23 -104 L 24 -104 L 25 -104 L 26 -104 L 27 -104 L 28 -104 L 29 -104 L 30 -104 L 31 -104 L 32 -103 L 33 -103 L 34 -103 L 35 -103 L 36 -103 L 37 -103 L 38 -102 L 39 -102 L 40 -102 L 41 -102 L 42 -101 L 43 -101 L 44 -101 L 45 -101 L 46 -100 L 47 -100 L 48 -100 L 48 -99 L 49 -99 L 50 -99 L 51 -98 L 52 -98 L 53 -98 L 54 -97 L 55 -97 L 56 -96 L 57 -96 L 58 -95 L 59 -95 L 60 -94 L 61 -94 L 62 -93 L 63 -93 L 64 -92 L 65 -92 L 66 -91 L 67 -91 L 67 -90 L 68 -90 L 69 -90 L 69 -89 L 70 -89 L 70 -88 L 71 -88 L 72 -88 L 72 -87 L 73 -87 L 73 -86 L 74 -86 L 75 -85 L 76 -84 L 77 -84 L 77 -83 L 78 -83 L 78 -82 L 79 -82 L 79 -81 L 80 -81 L 81 -80 L 82 -79 L 83 -78 L 84 -77 L 85 -76 L 86 -76 L 86 -75 L 87 -75 L 87 -74 L 88 -73 L 89 -72 L 90 -71 L 90 -70 L 91 -70 L 91 -69 L 92 -69 L 92 -68 L 93 -68 L 93 -67 L 93 -66 L 94 -66 L 94 -65 L 95 -64 L 96 -63 L 97 -62 L 97 -61 L 98 -60 L 98 -59 L 99 -59 L 99 -58 L 99 -57 L 100 -57 L 100 -56 L 101 -55 L 101 -54 L 102 -53 L 102 -52 L 103 -51 L 103 -50 L 104 -49 L 104 -48 L 105 -47 L 105 -46 L 106 -45 L 106 -44 L 106 -43 L 107 -42 L 107 -41 L 107 -40 L 108 -39 L 108 -38 L 108 -37 L 109 -36 L 109 -35 L 109 -34 L 109 -33 L 110 -32 L 110 -31 L 110 -30 L 110 -29 L 111 -29 L 111 -28 L 111 -27 L 111 -26 L 111 -25 L 111 -24 L 112 -23 L 112 -22 L 112 -21 L 112 -20 L 112 -19 L 112 -18 L 112 -17 L 112 -16 L 112 -15 L 113 -14 L 113 -13 L 113 -12 L 113 -11 L 113 -10 L 113 -9 L 113 -8 L 113 -7 L 113 -6 L 113 -5 L 113 -4 L 113 -3 L 112 -2 L 112 -1 L 112 0 L 112 1 L 112 2 L 112 3 L 112 4 L 112 5 L 112 6 L 111 7 L 111 8 L 111 9 L 111 10 L 111 11 L 110 12 L 110 13 L 110 14 L 110 15 L 110 16 L 109 16 L 109 17 L 109 18 L 109 19 L 108 20 L 108 21 L 108 22 L 107 23 L 107 24 L 107 25 L 106 26 L 106 27 L 105 28 L 105 29 L 105 30 L 104 30 L 104 31 L 104 32 L 103 32 L 103 33 L 103 34 L 102 34 L 102 35 L 102 36 L 101 36 L 101 37 L 100 38 L 100 39 L 99 40 L 99 41 L 98 41 L 98 42 L 97 43 L 97 44 L 96 44 L 96 45 L 95 46 L 95 47 L 94 47 L 94 48 L 93 48 L 93 49 L 92 50 L 92 51 L 91 51 L 91 52 L 90 52 L 90 53 L 89 53 L 89 54 L 88 54 L 88 55 L 87 55 L 87 56 L 86 56 L 86 57 L 85 57 L 85 58 L 84 58 L 84 59 L 83 59 L 83 60 L 82 60 L 82 61 L 81 61 L 80 62 L 79 63 L 78 64 L 77 64 L 76 65 L 75 66 L 74 66 L 74 67 L 73 67 L 73 68 L 72 68 L 71 68 L 71 69 L 70 69 L 69 70 L 68 70 L 67 71 L 66 71 L 66 72 L 65 72 L 64 72 L 63 73 L 62 73 L 61 74 L 60 74 L 59 75 L 58 75 L 57 75 L 57 76 L 56 76 L 55 76 L 54 76 L 54 77 L 53 77 L 52 77 L 51 77 L 50 77 L 50 78 L 49 78 L 48 78 L 47 78 L 46 79 L 45 79 L 44 79 L 43 79 L 42 79 L 41 79 L 41 80 L 40 80 L 39 80 L 38 80 L 37 80 L 36 80 L 35 80 L 34 80 L 33 80 L 32 80 L 31 80 L 30 80 L 29 80 L 28 80 L 27 80 L 26 80 L 25 80 L 24 80 L 23 80 L 22 80 L 21 79 L 20 79 L 19 79 L 18 79 L 17 79 L 16 78 L 15 78 L 14 78 L 13 78 L 12 78 L 12 77 L 11 77 L 10 77 L 9 76 L 8 76 L 7 76 L 6 75 L 5 75 L 4 74 L 3 74 L 2 74 L 2 73 L 1 73 L 0 73 L 0 72 L -1 72 L -2 71 L -3 71 L -3 70 L -4 70 L -5 69 L -6 69 L -6 68 L -7 68 L -7 67 L -8 67 L -9 66 L -10 66 L -10 65 L -11 65 L -11 64 L -12 64 L -12 63 L -13 63 L -13 62 L -14 62 L -14 61 L -15 60 L -15 59 L -16 59 L -16 58 L -17 58 L -17 57 L -18 56 L -18 55 L -19 55 L -19 54 L -19 53 L -20 53 L -20 52 L -20 51 L -21 51 L -21 50 L -21 49 L -22 49 L -22 48 L -22 47 L -23 46 L -23 45 L -23 44 L -23 43 L -24 42 L -24 41 L -24 40 L -24 39 L -24 38 L -24 37 L -24 36 L -24 35 L -24 34 L -24 33 L -24 32 L -24 31 L -24 30 L -24 29 L -23 29 L -23 28 L -23 27 L -23 26 L -22 26 L -22 25 L -22 24 L -21 24 L -21 23 L -21 22 L -20 22 L -20 21 L -19 20 L -19 19 L -18 19 L -18 18 L -17 18 L -17 17 L -16 17 L -15 16 L -14 16 L -14 15 L -13 15 L -12 15 L -11 15 L -11 14 L -10 14 L -9 14 L -8 14 L -7 14 L -6 14 L -5 14 L -4 14 L -3 14 L -2 15 L -1 15 L 0 15 L 0 16 L 1 16 L 1 17 L 2 17 L 3 17 L 3 18 L 4 19 L 4 20 L 5 20 L 5 21 L 6 21 L 6 22 L 6 23 L 7 23 L 7 24 L 7 25 L 7 26 L 7 27 L 8 27 L 8 28 L 8 29 L 8 30 L 8 31 L 8 32 L 8 33 L 8 34 L 8 35 L 7 36 L 7 37 L 7 38 L 7 39 L 6 39 L 6 40 L 6 41 L 6 42 L 5 42 L 5 43 L 5 44 L 4 44 L 4 45 L 3 46 L 3 47 L 2 47 L 2 48 L 1 48 L 1 49 L 1 50 L 0 50 L 0 51 L -1 51 L -1 52 L -2 52 L -2 53 L -3 53 L -3 54 L -4 54 L -5 55 L -6 55 L -6 56 L -7 56 L -7 57 L -8 57 L -9 58 L -10 58 L -11 59 L -12 59 L -13 60 L -14 60 L -15 61 L -16 61 L -17 62 L -18 62 L -19 62 L -20 63 L -21 63 L -22 63 L -23 63 L -23 64 L -24 64 L -25 64 L -26 64 L -27 64 L -28 64 L -28 65 L -29 65 L -30 65 L -31 65 L -32 65 L -33 65 L -34 65 L -35 65 L -36 65 L -37 65 L -38 65 L -39 65 L -40 65 L -41 65 L -42 65 L -43 65 L -44 65 L -45 64 L -46 64 L -47 64 L -48 64 L -49 64 L -50 63 L -51 63 L -52 63 L -53 63 L -54 62 L -55 62 L -56 62 L -57 62 L -57 61 L -58 61 L -59 61 L -60 60 L -61 60 L -62 59 L -63 59 L -64 59 L -64 58 L -65 58 L -66 58 L -66 57 L -67 57 L -68 56 L -69 56 L -69 55 L -70 55 L -71 55 L -72 54 L -73 54 L -73 53 L -74 53 L -74 52 L -75 52 L -76 51 L -77 51 L -77 50 L -78 50 L -78 49 L -79 49 L -80 48 L -81 47 L -82 47 L -82 46 L -83 45 L -84 44 L -85 43 L -86 42 L -87 42 L -87 41 L -88 40 L -89 39 L -90 38 L -90 37 L -91 37 L -91 36 L -92 35 L -92 34 L -93 34 L -93 33 L -94 32 L -95 31 L -95 30 L -96 29 L -96 28 L -97 28 L -97 27 L -97 26 L -98 26 L -98 25 L -99 24 L -99 23 L -100 22 L -100 21 L -100 20 L -101 20 L -101 19 L -101 18 L -102 18 L -102 17 L -102 16 L -103 15 L -103 14 L -103 13 L -104 13 L -104 12 L -104 11 L -104 10 L -105 9 L -105 8 L -105 7 L -105 6 L -106 6 L -106 5 L -106 4 L -106 3 L -106 2 L -107 2 L -107 1 L -107 0 L -107 -1 L -107 -2 L -107 -3 L -108 -4 L -108 -5 L -108 -6 L -108 -7 L -108 -8 L -108 -9 L -108 -10 L -108 -11 L -108 -12 L -108 -13 L -108 -14 L -108 -15 L -108 -16 L -108 -17 L -108 -18 L -108 -19 L -108 -20 L -108 -21 L -108 -22 L -108 -23 L -108 -24 L -108 -25 L -108 -26 L -108 -27 L -108 -28 L -107 -29 L -107 -30 L -107 -31 L -107 -32 L -107 -33 L -107 -34 L -106 -35 L -106 -36 L -106 -37 L -106 -38 L -105 -39 L -105 -40 L -105 -41 L -105 -42 L -104 -43 L -104 -44 L -104 -45 L -104 -46 L -103 -46 L -103 -47 L -103 -48 L -103 -49 L -102 -49 L -102 -50 L -102 -51 L -101 -51 L -101 -52 L -101 -53 L -100 -54 L -100 -55 L -100 -56 L -99 -56 L -99 -57 L -99 -58 L -98 -58 L -98 -59 L -98 -60 L -97 -60 L -97 -61 L -96 -62 L -96 -63 L -95 -64 L -95 -65 L -94 -66 L -93 -67 L -93 -68 L -92 -69 L -91 -70 L -91 -71 L -90 -71 L -90 -72 L -89 -73 L -89 -74 L -88 -74 L -88 -75 L -87 -76 L -86 -77 L -85 -78 L -85 -79 L -84 -79 L -84 -80 L -83 -80 L -83 -81 L -82 -81 L -81 -82 L -81 -83 L -80 -83 L -80 -84 L -79 -84 L -79 -85 L -78 -85 L -78 -86 L -77 -86 L -76 -87 L -75 -88 L -74 -89 L -73 -90 L -72 -90 L -72 -91 L -71 -91 L -71 -92 L -70 -92 L -69 -93 L -68 -94 L -67 -94 L -66 -95 L -65 -96 L -64 -96 L -64 -97 L -63 -97 L -62 -97 L -62 -98 L -61 -98 L -60 -99 L -59 -99 L -58 -100 L -57 -100 L -56 -101 L -55 -101 L -54 -102 L -53 -102 L -52 -103 L -51 -103 L -50 -104 L -49 -104 L -48 -105 L -47 -105 L -46 -105 L -45 -106 L -44 -106 L -43 -106 L -42 -107 L -41 -107 L -40 -107 L -39 -108 L -38 -108 L -37 -108 L -36 -108 L -36 -109 L -35 -109 L -34 -109 L -33 -109 L -32 -109 L -31 -110 L -30 -110 L -29 -110 L -28 -110 L -27 -110 L -26 -110 L -25 -111 L -24 -111 L -23 -111 L -22 -111 L -21 -111 L -20 -111 L -19 -111 L -18 -111 L -17 -111 L -16 -111 L -15 -111 L -14 -111 L -13 -111 L -12 -111 L -11 -111 L -10 -111 L -9 -111 L -8 -111 L -7 -111 L -6 -111 L -5 -111 L -4 -111 L -3 -111 L -2 -111 L -1 -111 L 0 -111 L 1 -110 L 2 -110 L 3 -110 L 4 -110 L 5 -110 L 6 -110 L 7 -109 L 8 -109 L 9 -109 L 10 -109 L 11 -108 L 12 -108 L 13 -108 L 14 -108 L 15 -107 L 16 -107 L 17 -107 L 17 -106 L 18 -106 L 19 -106 L 20 -106 L 21 -105 L 22 -105 L 23 -104 L 24 -104 L 25 -104 L 25 -103 L 26 -103 L 27 -103 L 27 -102 L 28 -102 L 29 -102 L 29 -101 L 30 -101 L 31 -101 L 31 -100 L 32 -100 L 33 -99 L 34 -99 L 35 -98 L 36 -98 L 37 -97 L 38 -96 L 39 -96 L 39 -95 L 40 -95 L 41 -94 L 42 -94 L 42 -93 L 43 -93 L 43 -92 L 44 -92 L 44 -91 L 45 -91 L 46 -90 L 47 -90 L 47 -89 L 48 -89 L 48 -88 L 49 -88 L 49 -87 L 50 -87 L 50 -86 L 51 -85 L 52 -85 L 52 -84 L 53 -84 L 53 -83 L 54 -83 L 54 -82 L 55 -82 L 55 -81 L 56 -80 L 56 -79 L 57 -79 L 57 -78 L 58 -77 L 59 -76 L 59 -75 L 60 -75 L 60 -74 L 61 -74 L 61 -73 L 62 -72 L 62 -71 L 63 -70 L 63 -69 L 64 -69 L 64 -68 L 64 -67 L 65 -66 L 65 -65 L 66 -65 L 66 -64 L 66 -63 L 67 -63 L 67 -62 L 67 -61 L 68 -60 L 68 -59 L 68 -58 L 69 -58 L 69 -57 L 69 -56 L 70 -55 L 70 -54 L 70 -53 L 70 -52 L 71 -52 L 71 -51 L 71 -50 L 71 -49 L 71 -48 L 71 -47 L 72 -47 L 72 -46 L 72 -45 L 72 -44 L 72 -43 L 72 -42 L 72 -41 L 73 -41 L 73 -40 L 73 -39 L 73 -38 L 73 -37 L 73 -36 L 73 -35 L 73 -34 L 73 -33 L 73 -32 L 73 -31 L 73 -30 L 73 -29 L 73 -28 L 72 -28 L 72 -27 L 72 -26 L 72 -25 L 72 -24 L 72 -23 L 72 -22 L 71 -21 L 71 -20 L 71 -19 L 71 -18 L 70 -17 L 70 -16 L 70 -15 L 70 -14 L 69 -14 L 69 -13 L 69 -12 L 68 -12 L 68 -11 L 68 -10 L 67 -9 L 67 -8 L 66 -7 L 66 -6 L 65 -5 L 65 -4 L 64 -4 L 64 -3 L 63 -2 L 63 -1 L 62 -1 L 62 0 L 61 1 L 60 2 L 60 3 L 59 3 L 59 4 L 58 4 L 58 5 L 57 5 L 57 6 L 56 6 L 56 7 L 55 7 L 54 8 L 53 8 L 53 9 L 52 9 L 52 10 L 51 10 L 50 10 L 50 11 L 49 11 L 48 12 L 47 12 L 46 13 L 45 13 L 44 13 L 44 14 L 43 14 L 42 14 L 41 14 L 40 15 L 39 15 L 38 15 L 37 15 L 36 15 L 35 15 L 34 15 L 33 15 L 32 15 L 31 15 L 30 15 L 29 15 L 28 15 L 27 15 L 27 14 L 26 14 L 25 14 L 24 13 L 23 13 L 23 12 L 22 12 L 21 12 L 21 11 L 20 11 L 20 10 L 19 10 L 19 9 L 18 9 L 18 8 L 17 8 L 17 7 L 16 7 L 16 6 L 16 5 L 15 4 L 15 3 L 15 2 L 15 1 L 15 0"></path>
</svg>